<svg width="232" height="41" viewBox="0 0 232 41" fill="none" xmlns="http://www.w3.org/2000/svg">
<path d="M30.1 22.4726H6.55V17.0292H30.15C32.55 17.0792 32.55 22.4726 30.1 22.4726ZM30.05 34.408H6.55V29.0146H30.15C32.45 29.0646 32.7 34.3082 30.05 34.408ZM0 10.4872V40.9501H31.75C37.55 40.9501 40.7 31.7113 36.95 25.7186C40.25 20.4251 38.2 11.9354 32.95 10.637L0 10.4872Z" fill="#414141"/>
<path d="M77.2 41C80.9 41 83.9 38.553 85.75 35.5566C91.15 26.7674 87.75 12.8343 79.15 10.7369C71.05 10.637 63 10.5871 54.85 10.4872C51.15 10.4872 48.15 12.8843 46.3 15.9306C40.85 24.7199 44.25 38.6529 52.85 40.7503C61 40.8002 69.05 40.9001 77.2 41ZM54.85 34.408C51.75 34.408 50.2 28.4653 50.2 25.7186C50.2 23.1218 51.5 17.8283 54.4 17.0792C62 17.0792 69.6 17.0792 77.2 17.0792C80.3 17.0792 81.8 23.0219 81.8 25.7686C81.8 28.3155 80.55 33.659 77.6 34.408C70 34.408 62.45 34.408 54.85 34.408Z" fill="#414141"/>
<path d="M92.0898 10.4872V40.9501H98.6398V18.2278L114.79 33.3593L130.94 18.2278V40.9501H137.54V10.4872H130.64L114.79 25.3191L98.9398 10.4872H92.0898Z" fill="#414141"/>
<path d="M166.091 17.5286L172.891 28.715H157.191L163.991 17.5286H166.091ZM172.191 14.9318C170.991 12.9842 169.891 10.4872 166.841 10.4872C161.041 10.4872 160.741 10.1876 157.891 14.9817L142.041 40.9501H149.691L153.191 35.257H176.891L180.391 40.9501H188.091L172.191 14.9318Z" fill="#414141"/>
<path d="M199.128 18.827L224.228 40.4507H231.128V10.4872H224.578V32.0609L199.428 10.4872H192.578V40.4507H199.128V18.827Z" fill="#414141"/>
<path d="M62 2.99635C62 4.65118 60.6569 5.99269 59 5.99269C57.3431 5.99269 56 4.65118 56 2.99635C56 1.34151 57.3431 0 59 0C60.6569 0 62 1.34151 62 2.99635Z" fill="#4F4F4F"/>
<path d="M78 2.99635C78 4.65118 76.6569 5.99269 75 5.99269C73.3431 5.99269 72 4.65118 72 2.99635C72 1.34151 73.3431 0 75 0C76.6569 0 78 1.34151 78 2.99635Z" fill="#4F4F4F"/>
</svg>
