<svg width="15" height="16" viewBox="0 0 15 16" fill="none" xmlns="http://www.w3.org/2000/svg">
<path d="M6.21229 9.74613C4.78054 8.31438 4.45725 6.88263 4.38432 6.309C4.36394 6.15039 4.41852 5.99133 4.532 5.87865L5.69064 4.72052C5.86108 4.55019 5.89132 4.28473 5.76357 4.08042L3.9188 1.21589C3.77746 0.989655 3.48726 0.908006 3.2487 1.02735L0.287176 2.42212C0.0942571 2.51711 -0.0192155 2.72209 0.00268841 2.93601C0.157864 4.41017 0.800548 8.03403 4.36182 11.5956C7.92309 15.1571 11.5464 15.7995 13.0214 15.9547C13.2353 15.9766 13.4403 15.8631 13.5353 15.6702L14.93 12.7087C15.0489 12.4706 14.9678 12.1812 14.7425 12.0396L11.878 10.1954C11.6738 10.0675 11.4084 10.0975 11.2379 10.2678L10.0798 11.4264C9.96709 11.5399 9.80803 11.5945 9.64942 11.5741C9.07579 11.5012 7.64404 11.1779 6.21229 9.74613Z" fill="#414141"/>
<path d="M11.8976 8.97466C11.612 8.97466 11.3804 8.74307 11.3804 8.4574C11.378 6.31588 9.64253 4.58044 7.50102 4.57802C7.21535 4.57802 6.98376 4.34644 6.98376 4.06077C6.98376 3.7751 7.21535 3.54352 7.50102 3.54352C10.2136 3.54651 12.4119 5.74478 12.4149 8.4574C12.4149 8.74307 12.1833 8.97466 11.8976 8.97466Z" fill="#414141"/>
<path d="M14.4839 8.97464C14.1982 8.97464 13.9667 8.74305 13.9667 8.45738C13.9627 4.88817 11.0702 1.99574 7.50102 1.99175C7.21535 1.99175 6.98376 1.76017 6.98376 1.4745C6.98376 1.18883 7.21535 0.957245 7.50102 0.957245C11.6413 0.961806 14.9966 4.31706 15.0012 8.45738C15.0012 8.59457 14.9467 8.72613 14.8497 8.82314C14.7527 8.92014 14.6211 8.97464 14.4839 8.97464Z" fill="#414141"/>
</svg>
