<svg width="24" height="111" viewBox="0 0 24 111" fill="none" xmlns="http://www.w3.org/2000/svg">
<path d="M13.0607 0.939339C12.4749 0.353554 11.5251 0.353554 10.9393 0.939339L1.3934 10.4853C0.80761 11.0711 0.80761 12.0208 1.3934 12.6066C1.97918 13.1924 2.92893 13.1924 3.51472 12.6066L12 4.12132L20.4853 12.6066C21.0711 13.1924 22.0208 13.1924 22.6066 12.6066C23.1924 12.0208 23.1924 11.0711 22.6066 10.4853L13.0607 0.939339ZM13.5 39L13.5 2L10.5 2L10.5 39L13.5 39Z" fill="#414141"/>
<path d="M11.3262 103.344H12.3994V108.73H11.3262V103.344ZM7.04688 108.525H17V109.845H7.04688V108.525ZM7.04688 102.195H17V103.508H7.04688V102.195ZM15.7354 95.6807H11.9277C11.6361 95.6807 11.3831 95.7399 11.1689 95.8584C10.9502 95.9723 10.7816 96.1455 10.6631 96.3779C10.5446 96.6104 10.4854 96.8975 10.4854 97.2393C10.4854 97.5583 10.54 97.8385 10.6494 98.0801C10.7588 98.3171 10.9023 98.5039 11.0801 98.6406C11.2578 98.7728 11.4492 98.8389 11.6543 98.8389V100.104C11.39 100.104 11.1279 100.035 10.8682 99.8984C10.6084 99.7617 10.3737 99.5658 10.1641 99.3105C9.94987 99.0508 9.78125 98.7409 9.6582 98.3809C9.5306 98.0163 9.4668 97.6107 9.4668 97.1641C9.4668 96.6263 9.55794 96.1523 9.74023 95.7422C9.92253 95.3275 10.1982 95.0039 10.5674 94.7715C10.932 94.5345 11.39 94.416 11.9414 94.416H15.3867C15.6328 94.416 15.8949 94.3955 16.1729 94.3545C16.4508 94.3089 16.6901 94.2428 16.8906 94.1562H17V95.4756C16.8542 95.5394 16.6605 95.5895 16.4189 95.626C16.1729 95.6624 15.945 95.6807 15.7354 95.6807ZM12.5156 95.4619L13.4043 95.4482L13.4043 96.7266C13.4043 97.0866 13.4339 97.4079 13.4932 97.6904C13.5479 97.973 13.6322 98.21 13.7461 98.4014C13.86 98.5928 14.0036 98.7386 14.1768 98.8389C14.3454 98.9391 14.5436 98.9893 14.7715 98.9893C15.0039 98.9893 15.2158 98.9368 15.4072 98.832C15.5986 98.7272 15.7513 98.57 15.8652 98.3604C15.9746 98.1462 16.0293 97.8841 16.0293 97.5742C16.0293 97.1868 15.9473 96.8451 15.7832 96.5488C15.6191 96.2526 15.4186 96.0179 15.1816 95.8447C14.9447 95.667 14.7145 95.5713 14.4912 95.5576L15.0996 95.0176C15.291 95.0495 15.5029 95.1361 15.7354 95.2773C15.9678 95.4186 16.1911 95.6077 16.4053 95.8447C16.6149 96.0771 16.7904 96.3551 16.9316 96.6787C17.0684 96.9977 17.1367 97.3577 17.1367 97.7588C17.1367 98.2601 17.0387 98.6999 16.8428 99.0781C16.6468 99.4518 16.3848 99.7435 16.0566 99.9531C15.724 100.158 15.3525 100.261 14.9424 100.261C14.5459 100.261 14.1973 100.183 13.8965 100.028C13.5911 99.8734 13.3382 99.6501 13.1377 99.3584C12.9326 99.0667 12.7777 98.7158 12.6729 98.3057C12.568 97.8955 12.5156 97.4375 12.5156 96.9316L12.5156 95.4619ZM13.7461 88.9541V91.3809L12.7344 91.3945V89.4121C12.7344 89.0202 12.6956 88.6943 12.6182 88.4346C12.5407 88.1702 12.4245 87.972 12.2695 87.8398C12.1146 87.7077 11.9232 87.6416 11.6953 87.6416C11.5176 87.6416 11.3626 87.6803 11.2305 87.7578C11.0938 87.8307 10.9821 87.9424 10.8955 88.0928C10.8044 88.2432 10.7383 88.43 10.6973 88.6533C10.6517 88.8721 10.6289 89.1296 10.6289 89.4258V91.0459H17V92.3105H9.60352V89.4258C9.60352 88.9564 9.64453 88.5348 9.72656 88.1611C9.80859 87.7829 9.93392 87.4616 10.1025 87.1973C10.2666 86.9284 10.4762 86.7233 10.7314 86.582C10.9867 86.4408 11.2874 86.3701 11.6338 86.3701C11.8571 86.3701 12.069 86.4157 12.2695 86.5068C12.4701 86.598 12.6478 86.7324 12.8027 86.9102C12.9577 87.0879 13.0853 87.3066 13.1855 87.5664C13.2813 87.8262 13.3428 88.1247 13.3701 88.4619L13.7461 88.9541ZM17 88.9541V91.8389L15.9746 91.21V88.9541C15.9746 88.6032 15.9313 88.3115 15.8447 88.0791C15.7536 87.8467 15.626 87.6735 15.4619 87.5596C15.2933 87.4411 15.0928 87.3818 14.8604 87.3818C14.6279 87.3818 14.4297 87.4411 14.2656 87.5596C14.097 87.6735 13.9694 87.8467 13.8828 88.0791C13.7917 88.3115 13.7461 88.6032 13.7461 88.9541V90.875L12.7344 90.8613V88.4619L13.1172 88.0039C13.1491 87.5983 13.2493 87.2542 13.418 86.9717C13.5866 86.6891 13.8008 86.4749 14.0605 86.3291C14.3158 86.1833 14.5938 86.1104 14.8945 86.1104C15.2409 86.1104 15.5462 86.1764 15.8105 86.3086C16.0749 86.4362 16.2959 86.623 16.4736 86.8691C16.6468 87.1152 16.779 87.4137 16.8701 87.7646C16.9567 88.1156 17 88.512 17 88.9541ZM17.1367 81.3457C17.1367 81.8607 17.0501 82.3278 16.877 82.7471C16.6992 83.1618 16.4508 83.5195 16.1318 83.8203C15.8128 84.1165 15.4346 84.3444 14.9971 84.5039C14.5596 84.6634 14.0811 84.7432 13.5615 84.7432H13.2744C12.6729 84.7432 12.1374 84.6543 11.668 84.4766C11.194 84.2988 10.793 84.0573 10.4648 83.752C10.1367 83.4466 9.88835 83.1003 9.71973 82.7129C9.55111 82.3255 9.4668 81.9245 9.4668 81.5098C9.4668 80.9811 9.55794 80.5254 9.74023 80.1426C9.92253 79.7552 10.1777 79.4385 10.5059 79.1924C10.8294 78.9463 11.2122 78.764 11.6543 78.6455C12.0918 78.527 12.5703 78.4678 13.0898 78.4678H13.6572V83.9912H12.625V79.7324H12.5293C12.2012 79.7507 11.8822 79.819 11.5723 79.9375C11.2624 80.0514 11.0072 80.2337 10.8066 80.4844C10.6061 80.735 10.5059 81.0768 10.5059 81.5098C10.5059 81.7969 10.5674 82.0612 10.6904 82.3027C10.8089 82.5443 10.9867 82.7516 11.2236 82.9248C11.4606 83.098 11.75 83.2324 12.0918 83.3281C12.4336 83.4238 12.8278 83.4717 13.2744 83.4717H13.5615C13.9124 83.4717 14.2428 83.4238 14.5527 83.3281C14.8581 83.2279 15.127 83.0843 15.3594 82.8975C15.5918 82.7061 15.7741 82.4759 15.9063 82.207C16.0384 81.9336 16.1045 81.6237 16.1045 81.2773C16.1045 80.8307 16.0133 80.4525 15.8311 80.1426C15.6488 79.8327 15.4049 79.5615 15.0996 79.3291L15.708 78.5635C15.9495 78.723 16.1797 78.9258 16.3984 79.1719C16.6172 79.418 16.7949 79.721 16.9316 80.0811C17.0684 80.4365 17.1367 80.8581 17.1367 81.3457ZM11.0254 75.7266H19.8438V76.998H9.60352V75.8359L11.0254 75.7266ZM13.2402 70.7432H13.3838C13.9215 70.7432 14.4206 70.807 14.8809 70.9346C15.3366 71.0622 15.7331 71.249 16.0703 71.4951C16.4076 71.7367 16.6696 72.0352 16.8564 72.3906C17.0433 72.7461 17.1367 73.154 17.1367 73.6143C17.1367 74.0837 17.0592 74.4984 16.9043 74.8584C16.7493 75.2184 16.5238 75.5238 16.2275 75.7744C15.9313 76.0251 15.5758 76.2256 15.1611 76.376C14.7464 76.5218 14.2793 76.6221 13.7598 76.6768H12.9941C12.4473 76.6221 11.9574 76.5195 11.5244 76.3691C11.0915 76.2188 10.7223 76.0205 10.417 75.7744C10.1071 75.5238 9.8724 75.2207 9.71289 74.8652C9.54883 74.5098 9.4668 74.0996 9.4668 73.6348C9.4668 73.1699 9.55794 72.7575 9.74023 72.3975C9.91797 72.0374 10.1732 71.7344 10.5059 71.4883C10.8385 71.2422 11.2373 71.0576 11.7021 70.9346C12.1624 70.807 12.6751 70.7432 13.2402 70.7432ZM13.3838 72.0146H13.2402C12.8711 72.0146 12.5247 72.0534 12.2012 72.1309C11.873 72.2083 11.5859 72.3291 11.3398 72.4932C11.0892 72.6527 10.8932 72.8577 10.752 73.1084C10.6061 73.359 10.5332 73.6576 10.5332 74.0039C10.5332 74.3229 10.5879 74.6009 10.6973 74.8379C10.8066 75.0703 10.9548 75.2686 11.1416 75.4326C11.3239 75.5967 11.5335 75.7311 11.7705 75.8359C12.0029 75.9362 12.2445 76.0114 12.4951 76.0615H14.2656C14.5846 75.9704 14.8854 75.8428 15.168 75.6787C15.446 75.5146 15.6715 75.2959 15.8447 75.0225C16.0133 74.749 16.0977 74.4049 16.0977 73.9902C16.0977 73.6484 16.027 73.3545 15.8857 73.1084C15.7399 72.8577 15.5417 72.6527 15.291 72.4932C15.0404 72.3291 14.7533 72.2083 14.4297 72.1309C14.1016 72.0534 13.7529 72.0146 13.3838 72.0146ZM9.60352 68.3848L12.2969 66.7646L9.60352 65.124V63.6406L13.2539 66.0605L17 63.5654V65.0283L14.2246 66.7373L17 68.4463V69.916L13.2539 67.4277L9.60352 69.8408V68.3848Z" fill="#414141"/>
</svg>
