<svg width="278" height="212" viewBox="0 0 278 212" fill="none" xmlns="http://www.w3.org/2000/svg">
<rect width="2" height="2" fill="#E1E1E1"/>
<rect width="2" height="2" fill="#E1E1E1"/>
<rect x="12" width="2" height="2" fill="#E1E1E1"/>
<rect x="24" width="2" height="2" fill="#E1E1E1"/>
<rect x="36" width="2" height="2" fill="#E1E1E1"/>
<rect x="48" width="2" height="2" fill="#E1E1E1"/>
<rect x="60" width="2" height="2" fill="#E1E1E1"/>
<rect x="72" width="2" height="2" fill="#E1E1E1"/>
<rect x="84" width="2" height="2" fill="#E1E1E1"/>
<rect x="96" width="2" height="2" fill="#E1E1E1"/>
<rect x="108" width="2" height="2" fill="#E1E1E1"/>
<rect x="120" width="2" height="2" fill="#E1E1E1"/>
<rect x="132" width="2" height="2" fill="#E1E1E1"/>
<rect x="144" width="2" height="2" fill="#E1E1E1"/>
<rect x="156" width="2" height="2" fill="#E1E1E1"/>
<rect x="168" width="2" height="2" fill="#E1E1E1"/>
<rect x="180" width="2" height="2" fill="#E1E1E1"/>
<rect x="192" width="2" height="2" fill="#E1E1E1"/>
<rect x="204" width="2" height="2" fill="#E1E1E1"/>
<rect x="216" width="2" height="2" fill="#E1E1E1"/>
<rect x="228" width="2" height="2" fill="#E1E1E1"/>
<rect x="240" width="2" height="2" fill="#E1E1E1"/>
<rect x="252" width="2" height="2" fill="#E1E1E1"/>
<rect x="264" width="2" height="2" fill="#E1E1E1"/>
<rect x="276" width="2" height="2" fill="#E1E1E1"/>
<rect width="2" height="2" transform="translate(0 10)" fill="#E1E1E1"/>
<rect y="10" width="2" height="2" fill="#E1E1E1"/>
<rect x="12" y="10" width="2" height="2" fill="#E1E1E1"/>
<rect x="24" y="10" width="2" height="2" fill="#E1E1E1"/>
<rect x="36" y="10" width="2" height="2" fill="#E1E1E1"/>
<rect x="48" y="10" width="2" height="2" fill="#E1E1E1"/>
<rect x="60" y="10" width="2" height="2" fill="#E1E1E1"/>
<rect x="72" y="10" width="2" height="2" fill="#E1E1E1"/>
<rect x="84" y="10" width="2" height="2" fill="#E1E1E1"/>
<rect x="96" y="10" width="2" height="2" fill="#E1E1E1"/>
<rect x="108" y="10" width="2" height="2" fill="#E1E1E1"/>
<rect x="120" y="10" width="2" height="2" fill="#E1E1E1"/>
<rect x="132" y="10" width="2" height="2" fill="#E1E1E1"/>
<rect x="144" y="10" width="2" height="2" fill="#E1E1E1"/>
<rect x="156" y="10" width="2" height="2" fill="#E1E1E1"/>
<rect x="168" y="10" width="2" height="2" fill="#E1E1E1"/>
<rect x="180" y="10" width="2" height="2" fill="#E1E1E1"/>
<rect x="192" y="10" width="2" height="2" fill="#E1E1E1"/>
<rect x="204" y="10" width="2" height="2" fill="#E1E1E1"/>
<rect x="216" y="10" width="2" height="2" fill="#E1E1E1"/>
<rect x="228" y="10" width="2" height="2" fill="#E1E1E1"/>
<rect x="240" y="10" width="2" height="2" fill="#E1E1E1"/>
<rect x="252" y="10" width="2" height="2" fill="#E1E1E1"/>
<rect x="264" y="10" width="2" height="2" fill="#E1E1E1"/>
<rect x="276" y="10" width="2" height="2" fill="#E1E1E1"/>
<rect width="2" height="2" transform="translate(0 20)" fill="#E1E1E1"/>
<rect y="20" width="2" height="2" fill="#E1E1E1"/>
<rect x="12" y="20" width="2" height="2" fill="#E1E1E1"/>
<rect x="24" y="20" width="2" height="2" fill="#E1E1E1"/>
<rect x="36" y="20" width="2" height="2" fill="#E1E1E1"/>
<rect x="48" y="20" width="2" height="2" fill="#E1E1E1"/>
<rect x="60" y="20" width="2" height="2" fill="#E1E1E1"/>
<rect x="72" y="20" width="2" height="2" fill="#E1E1E1"/>
<rect x="84" y="20" width="2" height="2" fill="#E1E1E1"/>
<rect x="96" y="20" width="2" height="2" fill="#E1E1E1"/>
<rect x="108" y="20" width="2" height="2" fill="#E1E1E1"/>
<rect x="120" y="20" width="2" height="2" fill="#E1E1E1"/>
<rect x="132" y="20" width="2" height="2" fill="#E1E1E1"/>
<rect x="144" y="20" width="2" height="2" fill="#E1E1E1"/>
<rect x="156" y="20" width="2" height="2" fill="#E1E1E1"/>
<rect x="168" y="20" width="2" height="2" fill="#E1E1E1"/>
<rect x="180" y="20" width="2" height="2" fill="#E1E1E1"/>
<rect x="192" y="20" width="2" height="2" fill="#E1E1E1"/>
<rect x="204" y="20" width="2" height="2" fill="#E1E1E1"/>
<rect x="216" y="20" width="2" height="2" fill="#E1E1E1"/>
<rect x="228" y="20" width="2" height="2" fill="#E1E1E1"/>
<rect x="240" y="20" width="2" height="2" fill="#E1E1E1"/>
<rect x="252" y="20" width="2" height="2" fill="#E1E1E1"/>
<rect x="264" y="20" width="2" height="2" fill="#E1E1E1"/>
<rect x="276" y="20" width="2" height="2" fill="#E1E1E1"/>
<rect width="2" height="2" transform="translate(0 30)" fill="#E1E1E1"/>
<rect y="30" width="2" height="2" fill="#E1E1E1"/>
<rect x="12" y="30" width="2" height="2" fill="#E1E1E1"/>
<rect x="24" y="30" width="2" height="2" fill="#E1E1E1"/>
<rect x="36" y="30" width="2" height="2" fill="#E1E1E1"/>
<rect x="48" y="30" width="2" height="2" fill="#E1E1E1"/>
<rect x="60" y="30" width="2" height="2" fill="#E1E1E1"/>
<rect x="72" y="30" width="2" height="2" fill="#E1E1E1"/>
<rect x="84" y="30" width="2" height="2" fill="#E1E1E1"/>
<rect x="96" y="30" width="2" height="2" fill="#E1E1E1"/>
<rect x="108" y="30" width="2" height="2" fill="#E1E1E1"/>
<rect x="120" y="30" width="2" height="2" fill="#E1E1E1"/>
<rect x="132" y="30" width="2" height="2" fill="#E1E1E1"/>
<rect x="144" y="30" width="2" height="2" fill="#E1E1E1"/>
<rect x="156" y="30" width="2" height="2" fill="#E1E1E1"/>
<rect x="168" y="30" width="2" height="2" fill="#E1E1E1"/>
<rect x="180" y="30" width="2" height="2" fill="#E1E1E1"/>
<rect x="192" y="30" width="2" height="2" fill="#E1E1E1"/>
<rect x="204" y="30" width="2" height="2" fill="#E1E1E1"/>
<rect x="216" y="30" width="2" height="2" fill="#E1E1E1"/>
<rect x="228" y="30" width="2" height="2" fill="#E1E1E1"/>
<rect x="240" y="30" width="2" height="2" fill="#E1E1E1"/>
<rect x="252" y="30" width="2" height="2" fill="#E1E1E1"/>
<rect x="264" y="30" width="2" height="2" fill="#E1E1E1"/>
<rect x="276" y="30" width="2" height="2" fill="#E1E1E1"/>
<rect width="2" height="2" transform="translate(0 40)" fill="#E1E1E1"/>
<rect y="40" width="2" height="2" fill="#E1E1E1"/>
<rect x="12" y="40" width="2" height="2" fill="#E1E1E1"/>
<rect x="24" y="40" width="2" height="2" fill="#E1E1E1"/>
<rect x="36" y="40" width="2" height="2" fill="#E1E1E1"/>
<rect x="48" y="40" width="2" height="2" fill="#E1E1E1"/>
<rect x="60" y="40" width="2" height="2" fill="#E1E1E1"/>
<rect x="72" y="40" width="2" height="2" fill="#E1E1E1"/>
<rect x="84" y="40" width="2" height="2" fill="#E1E1E1"/>
<rect x="96" y="40" width="2" height="2" fill="#E1E1E1"/>
<rect x="108" y="40" width="2" height="2" fill="#E1E1E1"/>
<rect x="120" y="40" width="2" height="2" fill="#E1E1E1"/>
<rect x="132" y="40" width="2" height="2" fill="#E1E1E1"/>
<rect x="144" y="40" width="2" height="2" fill="#E1E1E1"/>
<rect x="156" y="40" width="2" height="2" fill="#E1E1E1"/>
<rect x="168" y="40" width="2" height="2" fill="#E1E1E1"/>
<rect x="180" y="40" width="2" height="2" fill="#E1E1E1"/>
<rect x="192" y="40" width="2" height="2" fill="#E1E1E1"/>
<rect x="204" y="40" width="2" height="2" fill="#E1E1E1"/>
<rect x="216" y="40" width="2" height="2" fill="#E1E1E1"/>
<rect x="228" y="40" width="2" height="2" fill="#E1E1E1"/>
<rect x="240" y="40" width="2" height="2" fill="#E1E1E1"/>
<rect x="252" y="40" width="2" height="2" fill="#E1E1E1"/>
<rect x="264" y="40" width="2" height="2" fill="#E1E1E1"/>
<rect x="276" y="40" width="2" height="2" fill="#E1E1E1"/>
<rect width="2" height="2" transform="translate(0 50)" fill="#E1E1E1"/>
<rect y="50" width="2" height="2" fill="#E1E1E1"/>
<rect x="12" y="50" width="2" height="2" fill="#E1E1E1"/>
<rect x="24" y="50" width="2" height="2" fill="#E1E1E1"/>
<rect x="36" y="50" width="2" height="2" fill="#E1E1E1"/>
<rect x="48" y="50" width="2" height="2" fill="#E1E1E1"/>
<rect x="60" y="50" width="2" height="2" fill="#E1E1E1"/>
<rect x="72" y="50" width="2" height="2" fill="#E1E1E1"/>
<rect x="84" y="50" width="2" height="2" fill="#E1E1E1"/>
<rect x="96" y="50" width="2" height="2" fill="#E1E1E1"/>
<rect x="108" y="50" width="2" height="2" fill="#E1E1E1"/>
<rect x="120" y="50" width="2" height="2" fill="#E1E1E1"/>
<rect x="132" y="50" width="2" height="2" fill="#E1E1E1"/>
<rect x="144" y="50" width="2" height="2" fill="#E1E1E1"/>
<rect x="156" y="50" width="2" height="2" fill="#E1E1E1"/>
<rect x="168" y="50" width="2" height="2" fill="#E1E1E1"/>
<rect x="180" y="50" width="2" height="2" fill="#E1E1E1"/>
<rect x="192" y="50" width="2" height="2" fill="#E1E1E1"/>
<rect x="204" y="50" width="2" height="2" fill="#E1E1E1"/>
<rect x="216" y="50" width="2" height="2" fill="#E1E1E1"/>
<rect x="228" y="50" width="2" height="2" fill="#E1E1E1"/>
<rect x="240" y="50" width="2" height="2" fill="#E1E1E1"/>
<rect x="252" y="50" width="2" height="2" fill="#E1E1E1"/>
<rect x="264" y="50" width="2" height="2" fill="#E1E1E1"/>
<rect x="276" y="50" width="2" height="2" fill="#E1E1E1"/>
<rect width="2" height="2" transform="translate(0 60)" fill="#E1E1E1"/>
<rect y="60" width="2" height="2" fill="#E1E1E1"/>
<rect x="12" y="60" width="2" height="2" fill="#E1E1E1"/>
<rect x="24" y="60" width="2" height="2" fill="#E1E1E1"/>
<rect x="36" y="60" width="2" height="2" fill="#E1E1E1"/>
<rect x="48" y="60" width="2" height="2" fill="#E1E1E1"/>
<rect x="60" y="60" width="2" height="2" fill="#E1E1E1"/>
<rect x="72" y="60" width="2" height="2" fill="#E1E1E1"/>
<rect x="84" y="60" width="2" height="2" fill="#E1E1E1"/>
<rect x="96" y="60" width="2" height="2" fill="#E1E1E1"/>
<rect x="108" y="60" width="2" height="2" fill="#E1E1E1"/>
<rect x="120" y="60" width="2" height="2" fill="#E1E1E1"/>
<rect x="132" y="60" width="2" height="2" fill="#E1E1E1"/>
<rect x="144" y="60" width="2" height="2" fill="#E1E1E1"/>
<rect x="156" y="60" width="2" height="2" fill="#E1E1E1"/>
<rect x="168" y="60" width="2" height="2" fill="#E1E1E1"/>
<rect x="180" y="60" width="2" height="2" fill="#E1E1E1"/>
<rect x="192" y="60" width="2" height="2" fill="#E1E1E1"/>
<rect x="204" y="60" width="2" height="2" fill="#E1E1E1"/>
<rect x="216" y="60" width="2" height="2" fill="#E1E1E1"/>
<rect x="228" y="60" width="2" height="2" fill="#E1E1E1"/>
<rect x="240" y="60" width="2" height="2" fill="#E1E1E1"/>
<rect x="252" y="60" width="2" height="2" fill="#E1E1E1"/>
<rect x="264" y="60" width="2" height="2" fill="#E1E1E1"/>
<rect x="276" y="60" width="2" height="2" fill="#E1E1E1"/>
<rect width="2" height="2" transform="translate(0 70)" fill="#E1E1E1"/>
<rect y="70" width="2" height="2" fill="#E1E1E1"/>
<rect x="12" y="70" width="2" height="2" fill="#E1E1E1"/>
<rect x="24" y="70" width="2" height="2" fill="#E1E1E1"/>
<rect x="36" y="70" width="2" height="2" fill="#E1E1E1"/>
<rect x="48" y="70" width="2" height="2" fill="#E1E1E1"/>
<rect x="60" y="70" width="2" height="2" fill="#E1E1E1"/>
<rect x="72" y="70" width="2" height="2" fill="#E1E1E1"/>
<rect x="84" y="70" width="2" height="2" fill="#E1E1E1"/>
<rect x="96" y="70" width="2" height="2" fill="#E1E1E1"/>
<rect x="108" y="70" width="2" height="2" fill="#E1E1E1"/>
<rect x="120" y="70" width="2" height="2" fill="#E1E1E1"/>
<rect x="132" y="70" width="2" height="2" fill="#E1E1E1"/>
<rect x="144" y="70" width="2" height="2" fill="#E1E1E1"/>
<rect x="156" y="70" width="2" height="2" fill="#E1E1E1"/>
<rect x="168" y="70" width="2" height="2" fill="#E1E1E1"/>
<rect x="180" y="70" width="2" height="2" fill="#E1E1E1"/>
<rect x="192" y="70" width="2" height="2" fill="#E1E1E1"/>
<rect x="204" y="70" width="2" height="2" fill="#E1E1E1"/>
<rect x="216" y="70" width="2" height="2" fill="#E1E1E1"/>
<rect x="228" y="70" width="2" height="2" fill="#E1E1E1"/>
<rect x="240" y="70" width="2" height="2" fill="#E1E1E1"/>
<rect x="252" y="70" width="2" height="2" fill="#E1E1E1"/>
<rect x="264" y="70" width="2" height="2" fill="#E1E1E1"/>
<rect x="276" y="70" width="2" height="2" fill="#E1E1E1"/>
<rect width="2" height="2" transform="translate(0 80)" fill="#E1E1E1"/>
<rect y="80" width="2" height="2" fill="#E1E1E1"/>
<rect x="12" y="80" width="2" height="2" fill="#E1E1E1"/>
<rect x="24" y="80" width="2" height="2" fill="#E1E1E1"/>
<rect x="36" y="80" width="2" height="2" fill="#E1E1E1"/>
<rect x="48" y="80" width="2" height="2" fill="#E1E1E1"/>
<rect x="60" y="80" width="2" height="2" fill="#E1E1E1"/>
<rect x="72" y="80" width="2" height="2" fill="#E1E1E1"/>
<rect x="84" y="80" width="2" height="2" fill="#E1E1E1"/>
<rect x="96" y="80" width="2" height="2" fill="#E1E1E1"/>
<rect x="108" y="80" width="2" height="2" fill="#E1E1E1"/>
<rect x="120" y="80" width="2" height="2" fill="#E1E1E1"/>
<rect x="132" y="80" width="2" height="2" fill="#E1E1E1"/>
<rect x="144" y="80" width="2" height="2" fill="#E1E1E1"/>
<rect x="156" y="80" width="2" height="2" fill="#E1E1E1"/>
<rect x="168" y="80" width="2" height="2" fill="#E1E1E1"/>
<rect x="180" y="80" width="2" height="2" fill="#E1E1E1"/>
<rect x="192" y="80" width="2" height="2" fill="#E1E1E1"/>
<rect x="204" y="80" width="2" height="2" fill="#E1E1E1"/>
<rect x="216" y="80" width="2" height="2" fill="#E1E1E1"/>
<rect x="228" y="80" width="2" height="2" fill="#E1E1E1"/>
<rect x="240" y="80" width="2" height="2" fill="#E1E1E1"/>
<rect x="252" y="80" width="2" height="2" fill="#E1E1E1"/>
<rect x="264" y="80" width="2" height="2" fill="#E1E1E1"/>
<rect x="276" y="80" width="2" height="2" fill="#E1E1E1"/>
<rect width="2" height="2" transform="translate(0 90)" fill="#E1E1E1"/>
<rect y="90" width="2" height="2" fill="#E1E1E1"/>
<rect x="12" y="90" width="2" height="2" fill="#E1E1E1"/>
<rect x="24" y="90" width="2" height="2" fill="#E1E1E1"/>
<rect x="36" y="90" width="2" height="2" fill="#E1E1E1"/>
<rect x="48" y="90" width="2" height="2" fill="#E1E1E1"/>
<rect x="60" y="90" width="2" height="2" fill="#E1E1E1"/>
<rect x="72" y="90" width="2" height="2" fill="#E1E1E1"/>
<rect x="84" y="90" width="2" height="2" fill="#E1E1E1"/>
<rect x="96" y="90" width="2" height="2" fill="#E1E1E1"/>
<rect x="108" y="90" width="2" height="2" fill="#E1E1E1"/>
<rect x="120" y="90" width="2" height="2" fill="#E1E1E1"/>
<rect x="132" y="90" width="2" height="2" fill="#E1E1E1"/>
<rect x="144" y="90" width="2" height="2" fill="#E1E1E1"/>
<rect x="156" y="90" width="2" height="2" fill="#E1E1E1"/>
<rect x="168" y="90" width="2" height="2" fill="#E1E1E1"/>
<rect x="180" y="90" width="2" height="2" fill="#E1E1E1"/>
<rect x="192" y="90" width="2" height="2" fill="#E1E1E1"/>
<rect x="204" y="90" width="2" height="2" fill="#E1E1E1"/>
<rect x="216" y="90" width="2" height="2" fill="#E1E1E1"/>
<rect x="228" y="90" width="2" height="2" fill="#E1E1E1"/>
<rect x="240" y="90" width="2" height="2" fill="#E1E1E1"/>
<rect x="252" y="90" width="2" height="2" fill="#E1E1E1"/>
<rect x="264" y="90" width="2" height="2" fill="#E1E1E1"/>
<rect x="276" y="90" width="2" height="2" fill="#E1E1E1"/>
<rect width="2" height="2" transform="translate(0 100)" fill="#E1E1E1"/>
<rect y="100" width="2" height="2" fill="#E1E1E1"/>
<rect x="12" y="100" width="2" height="2" fill="#E1E1E1"/>
<rect x="24" y="100" width="2" height="2" fill="#E1E1E1"/>
<rect x="36" y="100" width="2" height="2" fill="#E1E1E1"/>
<rect x="48" y="100" width="2" height="2" fill="#E1E1E1"/>
<rect x="60" y="100" width="2" height="2" fill="#E1E1E1"/>
<rect x="72" y="100" width="2" height="2" fill="#E1E1E1"/>
<rect x="84" y="100" width="2" height="2" fill="#E1E1E1"/>
<rect x="96" y="100" width="2" height="2" fill="#E1E1E1"/>
<rect x="108" y="100" width="2" height="2" fill="#E1E1E1"/>
<rect x="120" y="100" width="2" height="2" fill="#E1E1E1"/>
<rect x="132" y="100" width="2" height="2" fill="#E1E1E1"/>
<rect x="144" y="100" width="2" height="2" fill="#E1E1E1"/>
<rect x="156" y="100" width="2" height="2" fill="#E1E1E1"/>
<rect x="168" y="100" width="2" height="2" fill="#E1E1E1"/>
<rect x="180" y="100" width="2" height="2" fill="#E1E1E1"/>
<rect x="192" y="100" width="2" height="2" fill="#E1E1E1"/>
<rect x="204" y="100" width="2" height="2" fill="#E1E1E1"/>
<rect x="216" y="100" width="2" height="2" fill="#E1E1E1"/>
<rect x="228" y="100" width="2" height="2" fill="#E1E1E1"/>
<rect x="240" y="100" width="2" height="2" fill="#E1E1E1"/>
<rect x="252" y="100" width="2" height="2" fill="#E1E1E1"/>
<rect x="264" y="100" width="2" height="2" fill="#E1E1E1"/>
<rect x="276" y="100" width="2" height="2" fill="#E1E1E1"/>
<rect width="2" height="2" transform="translate(0 110)" fill="#E1E1E1"/>
<rect y="110" width="2" height="2" fill="#E1E1E1"/>
<rect x="12" y="110" width="2" height="2" fill="#E1E1E1"/>
<rect x="24" y="110" width="2" height="2" fill="#E1E1E1"/>
<rect x="36" y="110" width="2" height="2" fill="#E1E1E1"/>
<rect x="48" y="110" width="2" height="2" fill="#E1E1E1"/>
<rect x="60" y="110" width="2" height="2" fill="#E1E1E1"/>
<rect x="72" y="110" width="2" height="2" fill="#E1E1E1"/>
<rect x="84" y="110" width="2" height="2" fill="#E1E1E1"/>
<rect x="96" y="110" width="2" height="2" fill="#E1E1E1"/>
<rect x="108" y="110" width="2" height="2" fill="#E1E1E1"/>
<rect x="120" y="110" width="2" height="2" fill="#E1E1E1"/>
<rect x="132" y="110" width="2" height="2" fill="#E1E1E1"/>
<rect x="144" y="110" width="2" height="2" fill="#E1E1E1"/>
<rect x="156" y="110" width="2" height="2" fill="#E1E1E1"/>
<rect x="168" y="110" width="2" height="2" fill="#E1E1E1"/>
<rect x="180" y="110" width="2" height="2" fill="#E1E1E1"/>
<rect x="192" y="110" width="2" height="2" fill="#E1E1E1"/>
<rect x="204" y="110" width="2" height="2" fill="#E1E1E1"/>
<rect x="216" y="110" width="2" height="2" fill="#E1E1E1"/>
<rect x="228" y="110" width="2" height="2" fill="#E1E1E1"/>
<rect x="240" y="110" width="2" height="2" fill="#E1E1E1"/>
<rect x="252" y="110" width="2" height="2" fill="#E1E1E1"/>
<rect x="264" y="110" width="2" height="2" fill="#E1E1E1"/>
<rect x="276" y="110" width="2" height="2" fill="#E1E1E1"/>
<rect width="2" height="2" transform="translate(0 120)" fill="#E1E1E1"/>
<rect y="120" width="2" height="2" fill="#E1E1E1"/>
<rect x="12" y="120" width="2" height="2" fill="#E1E1E1"/>
<rect x="24" y="120" width="2" height="2" fill="#E1E1E1"/>
<rect x="36" y="120" width="2" height="2" fill="#E1E1E1"/>
<rect x="48" y="120" width="2" height="2" fill="#E1E1E1"/>
<rect x="60" y="120" width="2" height="2" fill="#E1E1E1"/>
<rect x="72" y="120" width="2" height="2" fill="#E1E1E1"/>
<rect x="84" y="120" width="2" height="2" fill="#E1E1E1"/>
<rect x="96" y="120" width="2" height="2" fill="#E1E1E1"/>
<rect x="108" y="120" width="2" height="2" fill="#E1E1E1"/>
<rect x="120" y="120" width="2" height="2" fill="#E1E1E1"/>
<rect x="132" y="120" width="2" height="2" fill="#E1E1E1"/>
<rect x="144" y="120" width="2" height="2" fill="#E1E1E1"/>
<rect x="156" y="120" width="2" height="2" fill="#E1E1E1"/>
<rect x="168" y="120" width="2" height="2" fill="#E1E1E1"/>
<rect x="180" y="120" width="2" height="2" fill="#E1E1E1"/>
<rect x="192" y="120" width="2" height="2" fill="#E1E1E1"/>
<rect x="204" y="120" width="2" height="2" fill="#E1E1E1"/>
<rect x="216" y="120" width="2" height="2" fill="#E1E1E1"/>
<rect x="228" y="120" width="2" height="2" fill="#E1E1E1"/>
<rect x="240" y="120" width="2" height="2" fill="#E1E1E1"/>
<rect x="252" y="120" width="2" height="2" fill="#E1E1E1"/>
<rect x="264" y="120" width="2" height="2" fill="#E1E1E1"/>
<rect x="276" y="120" width="2" height="2" fill="#E1E1E1"/>
<rect width="2" height="2" transform="translate(0 130)" fill="#E1E1E1"/>
<rect y="130" width="2" height="2" fill="#E1E1E1"/>
<rect x="12" y="130" width="2" height="2" fill="#E1E1E1"/>
<rect x="24" y="130" width="2" height="2" fill="#E1E1E1"/>
<rect x="36" y="130" width="2" height="2" fill="#E1E1E1"/>
<rect x="48" y="130" width="2" height="2" fill="#E1E1E1"/>
<rect x="60" y="130" width="2" height="2" fill="#E1E1E1"/>
<rect x="72" y="130" width="2" height="2" fill="#E1E1E1"/>
<rect x="84" y="130" width="2" height="2" fill="#E1E1E1"/>
<rect x="96" y="130" width="2" height="2" fill="#E1E1E1"/>
<rect x="108" y="130" width="2" height="2" fill="#E1E1E1"/>
<rect x="120" y="130" width="2" height="2" fill="#E1E1E1"/>
<rect x="132" y="130" width="2" height="2" fill="#E1E1E1"/>
<rect x="144" y="130" width="2" height="2" fill="#E1E1E1"/>
<rect x="156" y="130" width="2" height="2" fill="#E1E1E1"/>
<rect x="168" y="130" width="2" height="2" fill="#E1E1E1"/>
<rect x="180" y="130" width="2" height="2" fill="#E1E1E1"/>
<rect x="192" y="130" width="2" height="2" fill="#E1E1E1"/>
<rect x="204" y="130" width="2" height="2" fill="#E1E1E1"/>
<rect x="216" y="130" width="2" height="2" fill="#E1E1E1"/>
<rect x="228" y="130" width="2" height="2" fill="#E1E1E1"/>
<rect x="240" y="130" width="2" height="2" fill="#E1E1E1"/>
<rect x="252" y="130" width="2" height="2" fill="#E1E1E1"/>
<rect x="264" y="130" width="2" height="2" fill="#E1E1E1"/>
<rect x="276" y="130" width="2" height="2" fill="#E1E1E1"/>
<rect width="2" height="2" transform="translate(0 140)" fill="#E1E1E1"/>
<rect y="140" width="2" height="2" fill="#E1E1E1"/>
<rect x="12" y="140" width="2" height="2" fill="#E1E1E1"/>
<rect x="24" y="140" width="2" height="2" fill="#E1E1E1"/>
<rect x="36" y="140" width="2" height="2" fill="#E1E1E1"/>
<rect x="48" y="140" width="2" height="2" fill="#E1E1E1"/>
<rect x="60" y="140" width="2" height="2" fill="#E1E1E1"/>
<rect x="72" y="140" width="2" height="2" fill="#E1E1E1"/>
<rect x="84" y="140" width="2" height="2" fill="#E1E1E1"/>
<rect x="96" y="140" width="2" height="2" fill="#E1E1E1"/>
<rect x="108" y="140" width="2" height="2" fill="#E1E1E1"/>
<rect x="120" y="140" width="2" height="2" fill="#E1E1E1"/>
<rect x="132" y="140" width="2" height="2" fill="#E1E1E1"/>
<rect x="144" y="140" width="2" height="2" fill="#E1E1E1"/>
<rect x="156" y="140" width="2" height="2" fill="#E1E1E1"/>
<rect x="168" y="140" width="2" height="2" fill="#E1E1E1"/>
<rect x="180" y="140" width="2" height="2" fill="#E1E1E1"/>
<rect x="192" y="140" width="2" height="2" fill="#E1E1E1"/>
<rect x="204" y="140" width="2" height="2" fill="#E1E1E1"/>
<rect x="216" y="140" width="2" height="2" fill="#E1E1E1"/>
<rect x="228" y="140" width="2" height="2" fill="#E1E1E1"/>
<rect x="240" y="140" width="2" height="2" fill="#E1E1E1"/>
<rect x="252" y="140" width="2" height="2" fill="#E1E1E1"/>
<rect x="264" y="140" width="2" height="2" fill="#E1E1E1"/>
<rect x="276" y="140" width="2" height="2" fill="#E1E1E1"/>
<rect width="2" height="2" transform="translate(0 150)" fill="#E1E1E1"/>
<rect y="150" width="2" height="2" fill="#E1E1E1"/>
<rect x="12" y="150" width="2" height="2" fill="#E1E1E1"/>
<rect x="24" y="150" width="2" height="2" fill="#E1E1E1"/>
<rect x="36" y="150" width="2" height="2" fill="#E1E1E1"/>
<rect x="48" y="150" width="2" height="2" fill="#E1E1E1"/>
<rect x="60" y="150" width="2" height="2" fill="#E1E1E1"/>
<rect x="72" y="150" width="2" height="2" fill="#E1E1E1"/>
<rect x="84" y="150" width="2" height="2" fill="#E1E1E1"/>
<rect x="96" y="150" width="2" height="2" fill="#E1E1E1"/>
<rect x="108" y="150" width="2" height="2" fill="#E1E1E1"/>
<rect x="120" y="150" width="2" height="2" fill="#E1E1E1"/>
<rect x="132" y="150" width="2" height="2" fill="#E1E1E1"/>
<rect x="144" y="150" width="2" height="2" fill="#E1E1E1"/>
<rect x="156" y="150" width="2" height="2" fill="#E1E1E1"/>
<rect x="168" y="150" width="2" height="2" fill="#E1E1E1"/>
<rect x="180" y="150" width="2" height="2" fill="#E1E1E1"/>
<rect x="192" y="150" width="2" height="2" fill="#E1E1E1"/>
<rect x="204" y="150" width="2" height="2" fill="#E1E1E1"/>
<rect x="216" y="150" width="2" height="2" fill="#E1E1E1"/>
<rect x="228" y="150" width="2" height="2" fill="#E1E1E1"/>
<rect x="240" y="150" width="2" height="2" fill="#E1E1E1"/>
<rect x="252" y="150" width="2" height="2" fill="#E1E1E1"/>
<rect x="264" y="150" width="2" height="2" fill="#E1E1E1"/>
<rect x="276" y="150" width="2" height="2" fill="#E1E1E1"/>
<rect width="2" height="2" transform="translate(0 160)" fill="#E1E1E1"/>
<rect y="160" width="2" height="2" fill="#E1E1E1"/>
<rect x="12" y="160" width="2" height="2" fill="#E1E1E1"/>
<rect x="24" y="160" width="2" height="2" fill="#E1E1E1"/>
<rect x="36" y="160" width="2" height="2" fill="#E1E1E1"/>
<rect x="48" y="160" width="2" height="2" fill="#E1E1E1"/>
<rect x="60" y="160" width="2" height="2" fill="#E1E1E1"/>
<rect x="72" y="160" width="2" height="2" fill="#E1E1E1"/>
<rect x="84" y="160" width="2" height="2" fill="#E1E1E1"/>
<rect x="96" y="160" width="2" height="2" fill="#E1E1E1"/>
<rect x="108" y="160" width="2" height="2" fill="#E1E1E1"/>
<rect x="120" y="160" width="2" height="2" fill="#E1E1E1"/>
<rect x="132" y="160" width="2" height="2" fill="#E1E1E1"/>
<rect x="144" y="160" width="2" height="2" fill="#E1E1E1"/>
<rect x="156" y="160" width="2" height="2" fill="#E1E1E1"/>
<rect x="168" y="160" width="2" height="2" fill="#E1E1E1"/>
<rect x="180" y="160" width="2" height="2" fill="#E1E1E1"/>
<rect x="192" y="160" width="2" height="2" fill="#E1E1E1"/>
<rect x="204" y="160" width="2" height="2" fill="#E1E1E1"/>
<rect x="216" y="160" width="2" height="2" fill="#E1E1E1"/>
<rect x="228" y="160" width="2" height="2" fill="#E1E1E1"/>
<rect x="240" y="160" width="2" height="2" fill="#E1E1E1"/>
<rect x="252" y="160" width="2" height="2" fill="#E1E1E1"/>
<rect x="264" y="160" width="2" height="2" fill="#E1E1E1"/>
<rect x="276" y="160" width="2" height="2" fill="#E1E1E1"/>
<rect width="2" height="2" transform="translate(0 170)" fill="#E1E1E1"/>
<rect y="170" width="2" height="2" fill="#E1E1E1"/>
<rect x="12" y="170" width="2" height="2" fill="#E1E1E1"/>
<rect x="24" y="170" width="2" height="2" fill="#E1E1E1"/>
<rect x="36" y="170" width="2" height="2" fill="#E1E1E1"/>
<rect x="48" y="170" width="2" height="2" fill="#E1E1E1"/>
<rect x="60" y="170" width="2" height="2" fill="#E1E1E1"/>
<rect x="72" y="170" width="2" height="2" fill="#E1E1E1"/>
<rect x="84" y="170" width="2" height="2" fill="#E1E1E1"/>
<rect x="96" y="170" width="2" height="2" fill="#E1E1E1"/>
<rect x="108" y="170" width="2" height="2" fill="#E1E1E1"/>
<rect x="120" y="170" width="2" height="2" fill="#E1E1E1"/>
<rect x="132" y="170" width="2" height="2" fill="#E1E1E1"/>
<rect x="144" y="170" width="2" height="2" fill="#E1E1E1"/>
<rect x="156" y="170" width="2" height="2" fill="#E1E1E1"/>
<rect x="168" y="170" width="2" height="2" fill="#E1E1E1"/>
<rect x="180" y="170" width="2" height="2" fill="#E1E1E1"/>
<rect x="192" y="170" width="2" height="2" fill="#E1E1E1"/>
<rect x="204" y="170" width="2" height="2" fill="#E1E1E1"/>
<rect x="216" y="170" width="2" height="2" fill="#E1E1E1"/>
<rect x="228" y="170" width="2" height="2" fill="#E1E1E1"/>
<rect x="240" y="170" width="2" height="2" fill="#E1E1E1"/>
<rect x="252" y="170" width="2" height="2" fill="#E1E1E1"/>
<rect x="264" y="170" width="2" height="2" fill="#E1E1E1"/>
<rect x="276" y="170" width="2" height="2" fill="#E1E1E1"/>
<rect width="2" height="2" transform="translate(0 180)" fill="#E1E1E1"/>
<rect y="180" width="2" height="2" fill="#E1E1E1"/>
<rect x="12" y="180" width="2" height="2" fill="#E1E1E1"/>
<rect x="24" y="180" width="2" height="2" fill="#E1E1E1"/>
<rect x="36" y="180" width="2" height="2" fill="#E1E1E1"/>
<rect x="48" y="180" width="2" height="2" fill="#E1E1E1"/>
<rect x="60" y="180" width="2" height="2" fill="#E1E1E1"/>
<rect x="72" y="180" width="2" height="2" fill="#E1E1E1"/>
<rect x="84" y="180" width="2" height="2" fill="#E1E1E1"/>
<rect x="96" y="180" width="2" height="2" fill="#E1E1E1"/>
<rect x="108" y="180" width="2" height="2" fill="#E1E1E1"/>
<rect x="120" y="180" width="2" height="2" fill="#E1E1E1"/>
<rect x="132" y="180" width="2" height="2" fill="#E1E1E1"/>
<rect x="144" y="180" width="2" height="2" fill="#E1E1E1"/>
<rect x="156" y="180" width="2" height="2" fill="#E1E1E1"/>
<rect x="168" y="180" width="2" height="2" fill="#E1E1E1"/>
<rect x="180" y="180" width="2" height="2" fill="#E1E1E1"/>
<rect x="192" y="180" width="2" height="2" fill="#E1E1E1"/>
<rect x="204" y="180" width="2" height="2" fill="#E1E1E1"/>
<rect x="216" y="180" width="2" height="2" fill="#E1E1E1"/>
<rect x="228" y="180" width="2" height="2" fill="#E1E1E1"/>
<rect x="240" y="180" width="2" height="2" fill="#E1E1E1"/>
<rect x="252" y="180" width="2" height="2" fill="#E1E1E1"/>
<rect x="264" y="180" width="2" height="2" fill="#E1E1E1"/>
<rect x="276" y="180" width="2" height="2" fill="#E1E1E1"/>
<rect width="2" height="2" transform="translate(0 190)" fill="#E1E1E1"/>
<rect y="190" width="2" height="2" fill="#E1E1E1"/>
<rect x="12" y="190" width="2" height="2" fill="#E1E1E1"/>
<rect x="24" y="190" width="2" height="2" fill="#E1E1E1"/>
<rect x="36" y="190" width="2" height="2" fill="#E1E1E1"/>
<rect x="48" y="190" width="2" height="2" fill="#E1E1E1"/>
<rect x="60" y="190" width="2" height="2" fill="#E1E1E1"/>
<rect x="72" y="190" width="2" height="2" fill="#E1E1E1"/>
<rect x="84" y="190" width="2" height="2" fill="#E1E1E1"/>
<rect x="96" y="190" width="2" height="2" fill="#E1E1E1"/>
<rect x="108" y="190" width="2" height="2" fill="#E1E1E1"/>
<rect x="120" y="190" width="2" height="2" fill="#E1E1E1"/>
<rect x="132" y="190" width="2" height="2" fill="#E1E1E1"/>
<rect x="144" y="190" width="2" height="2" fill="#E1E1E1"/>
<rect x="156" y="190" width="2" height="2" fill="#E1E1E1"/>
<rect x="168" y="190" width="2" height="2" fill="#E1E1E1"/>
<rect x="180" y="190" width="2" height="2" fill="#E1E1E1"/>
<rect x="192" y="190" width="2" height="2" fill="#E1E1E1"/>
<rect x="204" y="190" width="2" height="2" fill="#E1E1E1"/>
<rect x="216" y="190" width="2" height="2" fill="#E1E1E1"/>
<rect x="228" y="190" width="2" height="2" fill="#E1E1E1"/>
<rect x="240" y="190" width="2" height="2" fill="#E1E1E1"/>
<rect x="252" y="190" width="2" height="2" fill="#E1E1E1"/>
<rect x="264" y="190" width="2" height="2" fill="#E1E1E1"/>
<rect x="276" y="190" width="2" height="2" fill="#E1E1E1"/>
<rect width="2" height="2" transform="translate(0 200)" fill="#E1E1E1"/>
<rect y="200" width="2" height="2" fill="#E1E1E1"/>
<rect x="12" y="200" width="2" height="2" fill="#E1E1E1"/>
<rect x="24" y="200" width="2" height="2" fill="#E1E1E1"/>
<rect x="36" y="200" width="2" height="2" fill="#E1E1E1"/>
<rect x="48" y="200" width="2" height="2" fill="#E1E1E1"/>
<rect x="60" y="200" width="2" height="2" fill="#E1E1E1"/>
<rect x="72" y="200" width="2" height="2" fill="#E1E1E1"/>
<rect x="84" y="200" width="2" height="2" fill="#E1E1E1"/>
<rect x="96" y="200" width="2" height="2" fill="#E1E1E1"/>
<rect x="108" y="200" width="2" height="2" fill="#E1E1E1"/>
<rect x="120" y="200" width="2" height="2" fill="#E1E1E1"/>
<rect x="132" y="200" width="2" height="2" fill="#E1E1E1"/>
<rect x="144" y="200" width="2" height="2" fill="#E1E1E1"/>
<rect x="156" y="200" width="2" height="2" fill="#E1E1E1"/>
<rect x="168" y="200" width="2" height="2" fill="#E1E1E1"/>
<rect x="180" y="200" width="2" height="2" fill="#E1E1E1"/>
<rect x="192" y="200" width="2" height="2" fill="#E1E1E1"/>
<rect x="204" y="200" width="2" height="2" fill="#E1E1E1"/>
<rect x="216" y="200" width="2" height="2" fill="#E1E1E1"/>
<rect x="228" y="200" width="2" height="2" fill="#E1E1E1"/>
<rect x="240" y="200" width="2" height="2" fill="#E1E1E1"/>
<rect x="252" y="200" width="2" height="2" fill="#E1E1E1"/>
<rect x="264" y="200" width="2" height="2" fill="#E1E1E1"/>
<rect x="276" y="200" width="2" height="2" fill="#E1E1E1"/>
<rect width="2" height="2" transform="translate(0 210)" fill="#E1E1E1"/>
<rect y="210" width="2" height="2" fill="#E1E1E1"/>
<rect x="12" y="210" width="2" height="2" fill="#E1E1E1"/>
<rect x="24" y="210" width="2" height="2" fill="#E1E1E1"/>
<rect x="36" y="210" width="2" height="2" fill="#E1E1E1"/>
<rect x="48" y="210" width="2" height="2" fill="#E1E1E1"/>
<rect x="60" y="210" width="2" height="2" fill="#E1E1E1"/>
<rect x="72" y="210" width="2" height="2" fill="#E1E1E1"/>
<rect x="84" y="210" width="2" height="2" fill="#E1E1E1"/>
<rect x="96" y="210" width="2" height="2" fill="#E1E1E1"/>
<rect x="108" y="210" width="2" height="2" fill="#E1E1E1"/>
<rect x="120" y="210" width="2" height="2" fill="#E1E1E1"/>
<rect x="132" y="210" width="2" height="2" fill="#E1E1E1"/>
<rect x="144" y="210" width="2" height="2" fill="#E1E1E1"/>
<rect x="156" y="210" width="2" height="2" fill="#E1E1E1"/>
<rect x="168" y="210" width="2" height="2" fill="#E1E1E1"/>
<rect x="180" y="210" width="2" height="2" fill="#E1E1E1"/>
<rect x="192" y="210" width="2" height="2" fill="#E1E1E1"/>
<rect x="204" y="210" width="2" height="2" fill="#E1E1E1"/>
<rect x="216" y="210" width="2" height="2" fill="#E1E1E1"/>
<rect x="228" y="210" width="2" height="2" fill="#E1E1E1"/>
<rect x="240" y="210" width="2" height="2" fill="#E1E1E1"/>
<rect x="252" y="210" width="2" height="2" fill="#E1E1E1"/>
<rect x="264" y="210" width="2" height="2" fill="#E1E1E1"/>
<rect x="276" y="210" width="2" height="2" fill="#E1E1E1"/>
</svg>
